<svg width="28" height="28" viewBox="0 0 28 28" fill="none" xmlns="http://www.w3.org/2000/svg">
<circle cx="14" cy="14" r="14" fill="#ECE9E2"/>
<path fill-rule="evenodd" clip-rule="evenodd" d="M4.87598 19.9594V7.74341H10.5232C12.3372 7.74341 13.8076 9.21387 13.8076 11.0278C13.8076 12.1804 13.4532 12.8945 12.1536 13.6269C13.7088 14.3355 14.1407 15.3176 14.1407 16.6874C14.1407 18.5405 12.4944 19.9594 10.6414 19.9594H4.87598ZM7.26566 9.76556V12.7031H10.0625C10.0625 12.7031 11.4219 12.7031 11.4219 11.2343C11.4219 9.76556 10.0625 9.76556 10.0625 9.76556H7.26566ZM7.26566 17.8906V14.7187H10.2657C10.75 14.7187 11.7657 14.9687 11.7657 16.4687C11.7657 17.5812 10.7657 17.8801 10.2657 17.8906H7.26566Z" fill="#E43D11"/>
<path fill-rule="evenodd" clip-rule="evenodd" d="M19.25 11.1093C17.5313 11.1093 14.9844 12.3437 14.9844 15.6249C14.9844 17.6229 16.0782 20.1874 19.3594 20.1874C21.9844 20.1874 23.1927 18.2604 23.4688 17.2968H21C20.875 17.7343 20.3907 18.2187 19.3594 18.2187C17.8594 18.2187 17.3282 16.9374 17.25 16.2968H23.4688V15.6249C23.4688 12.3437 20.9688 11.1093 19.25 11.1093ZM19.25 12.9843C17.85 12.9843 17.3334 14.1406 17.25 14.7187H21C21 14.1406 20.65 12.9843 19.25 12.9843Z" fill="#E43D11"/>
<path d="M16.2657 8.43744V9.95306H22.1563V8.43744H16.2657Z" fill="#E43D11"/>
</svg>
