<svg width="54" height="54" viewBox="0 0 54 54" fill="none" xmlns="http://www.w3.org/2000/svg">
<g id="HeaderIcon">
<path id="Vector" d="M9 29.25H45C46.2375 29.25 47.25 28.2375 47.25 27C47.25 25.7625 46.2375 24.75 45 24.75H9C7.7625 24.75 6.75 25.7625 6.75 27C6.75 28.2375 7.7625 29.25 9 29.25Z" fill="#E43D11"/>
<path id="Vector_2" d="M9 18C7.7625 18 6.75 16.9875 6.75 15.75C6.75 14.5125 7.7625 13.5 9 13.5H45C46.2375 13.5 47.25 14.5125 47.25 15.75C47.25 16.9875 46.2375 18 45 18H9Z" fill="#E43D11"/>
<path id="Vector_3" d="M45 40.5H9C7.7625 40.5 6.75 39.4875 6.75 38.25C6.75 37.0125 7.7625 36 9 36H45C46.2375 36 47.25 37.0125 47.25 38.25C47.25 39.4875 46.2375 40.5 45 40.5Z" fill="#E43D11"/>
</g>
</svg>
