<svg width="54" height="52" viewBox="0 0 54 52" fill="none" xmlns="http://www.w3.org/2000/svg">
<g id="HeaderIcon">
<path id="Vector" d="M15.8299 39.2609L41.2857 15.2579C42.1607 14.4328 42.1607 13.0826 41.2857 12.2575C40.4107 11.4324 38.9788 11.4324 38.1037 12.2575L12.6479 36.2606C11.7728 37.0857 11.7728 38.4358 12.6479 39.2609C13.5229 40.086 14.9548 40.086 15.8299 39.2609Z" fill="#E43D11"/>
<path id="Vector_2" d="M12.616 15.2115C11.741 14.3864 11.741 13.0362 12.616 12.2111C13.4911 11.386 14.923 11.386 15.798 12.2111L41.2539 36.2142C42.1289 37.0393 42.1289 38.3894 41.2539 39.2145C40.3788 40.0396 38.9469 40.0396 38.0719 39.2145L12.616 15.2115Z" fill="#E43D11"/>
</g>
</svg>
