<svg width="111" height="111" viewBox="0 0 111 111" fill="none" xmlns="http://www.w3.org/2000/svg">
<g id="figma 1" clip-path="url(#clip0_49_28)">
<path id="Vector" d="M37.2218 110.248C47.3418 110.248 55.5551 102.035 55.5551 91.9151V73.5818H37.2218C27.1018 73.5818 18.8884 81.7951 18.8884 91.9151C18.8884 102.035 27.1018 110.248 37.2218 110.248Z" fill="#0ACF83"/>
<path id="Vector_2" d="M18.8884 55.2486C18.8884 45.1286 27.1018 36.9153 37.2218 36.9153H55.5551V73.582H37.2218C27.1018 73.582 18.8884 65.3686 18.8884 55.2486Z" fill="#A259FF"/>
<path id="Vector_3" d="M18.8884 18.5819C18.8884 8.46187 27.1018 0.248535 37.2218 0.248535H55.5551V36.9152H37.2218C27.1018 36.9152 18.8884 28.7019 18.8884 18.5819Z" fill="#F24E1E"/>
<path id="Vector_4" d="M55.5552 0.248535H73.8885C84.0085 0.248535 92.2218 8.46187 92.2218 18.5819C92.2218 28.7019 84.0085 36.9152 73.8885 36.9152H55.5552V0.248535Z" fill="#FF7262"/>
<path id="Vector_5" d="M92.2218 55.2486C92.2218 65.3686 84.0085 73.582 73.8885 73.582C63.7685 73.582 55.5552 65.3686 55.5552 55.2486C55.5552 45.1286 63.7685 36.9153 73.8885 36.9153C84.0085 36.9153 92.2218 45.1286 92.2218 55.2486Z" fill="#1ABCFE"/>
</g>
<defs>
<clipPath id="clip0_49_28">
<rect width="110" height="110" fill="white" transform="translate(0.555176 0.248535)"/>
</clipPath>
</defs>
</svg>
