<svg width="28" height="28" viewBox="0 0 28 28" fill="none" xmlns="http://www.w3.org/2000/svg">
<g id="Group 3">
<circle id="bg" cx="14" cy="14" r="14" fill="#E43D11"/>
<g id="behance">
<path fill-rule="evenodd" clip-rule="evenodd" d="M4.87598 19.9597V7.74365H10.5232C12.3372 7.74365 13.8076 9.21412 13.8076 11.028C13.8076 12.1807 13.4532 12.8947 12.1536 13.6272C13.7088 14.3358 14.1407 15.3178 14.1407 16.6877C14.1407 18.5408 12.4944 19.9597 10.6414 19.9597H4.87598ZM7.26566 9.76581V12.7033H10.0625C10.0625 12.7033 11.4219 12.7033 11.4219 11.2346C11.4219 9.76581 10.0625 9.76581 10.0625 9.76581H7.26566ZM7.26566 17.8908V14.7189H10.2657C10.75 14.7189 11.7657 14.9689 11.7657 16.4689C11.7657 17.5814 10.7657 17.8804 10.2657 17.8908H7.26566Z" fill="white"/>
<path fill-rule="evenodd" clip-rule="evenodd" d="M19.25 11.1096C17.5313 11.1096 14.9844 12.3439 14.9844 15.6252C14.9844 17.6232 16.0782 20.1877 19.3594 20.1877C21.9844 20.1877 23.1927 18.2606 23.4688 17.2971H21C20.875 17.7346 20.3907 18.2189 19.3594 18.2189C17.8594 18.2189 17.3282 16.9377 17.25 16.2971H23.4688V15.6252C23.4688 12.3439 20.9688 11.1096 19.25 11.1096ZM19.25 12.9846C17.85 12.9846 17.3334 14.1408 17.25 14.7189H21C21 14.1408 20.65 12.9846 19.25 12.9846Z" fill="white"/>
<path d="M16.2657 8.43768V9.95331H22.1563V8.43768H16.2657Z" fill="white"/>
</g>
</g>
</svg>
