<svg width="101" height="100" viewBox="0 0 101 100" fill="none" xmlns="http://www.w3.org/2000/svg">
<g id="Group">
<path id="Vector" d="M91.4403 2H10.2096C6.13116 2 2.82495 5.3062 2.82495 9.38462V90.6154C2.82495 94.6938 6.13116 98 10.2096 98H91.4403C95.5187 98 98.825 94.6938 98.825 90.6154V9.38462C98.825 5.3062 95.5187 2 91.4403 2Z" fill="#ECE9E2" stroke="#E43D11" stroke-width="4" stroke-linecap="round" stroke-linejoin="round"/>
<path id="Vector_2" d="M2.82495 27.8477H98.825" stroke="#E43D11" stroke-width="4" stroke-linecap="round" stroke-linejoin="round"/>
<g id="Group_2">
<g id="Vector_3">
<path d="M32.3631 50L21.2861 61.0769L32.3631 72.1538" fill="#ECE9E2"/>
<path d="M32.3631 50L21.2861 61.0769L32.3631 72.1538" stroke="#E43D11" stroke-width="4" stroke-linecap="round" stroke-linejoin="round"/>
</g>
<g id="Vector_4">
<path d="M72.9785 50L84.0554 61.0769L72.9785 72.1538" fill="#ECE9E2"/>
<path d="M72.9785 50L84.0554 61.0769L72.9785 72.1538" stroke="#E43D11" stroke-width="4" stroke-linecap="round" stroke-linejoin="round"/>
</g>
<path id="Vector_5" d="M47.1323 75.8475L58.2092 42.6167" stroke="#E43D11" stroke-width="4" stroke-linecap="round" stroke-linejoin="round"/>
</g>
</g>
</svg>
