<svg width="28" height="28" viewBox="0 0 28 28" fill="none" xmlns="http://www.w3.org/2000/svg">
<g id="Icon">
<path d="M19.6 9.10019C21.8278 9.10019 23.9644 9.98519 25.5397 11.5605C27.115 13.1358 28 15.2724 28 17.5002V27.3002H22.4V17.5002C22.4 16.7576 22.105 16.0454 21.5799 15.5203C21.0548 14.9952 20.3426 14.7002 19.6 14.7002C18.8574 14.7002 18.1452 14.9952 17.6201 15.5203C17.095 16.0454 16.8 16.7576 16.8 17.5002V27.3002H11.2V17.5002C11.2 15.2724 12.085 13.1358 13.6603 11.5605C15.2356 9.98519 17.3722 9.10019 19.6 9.10019Z" fill="#E43D11"/>
<path d="M5.6 10.5002H0V27.3002H5.6V10.5002Z" fill="#E43D11"/>
<path d="M2.8 6.3002C4.3464 6.3002 5.6 5.04659 5.6 3.5002C5.6 1.9538 4.3464 0.700195 2.8 0.700195C1.2536 0.700195 0 1.9538 0 3.5002C0 5.04659 1.2536 6.3002 2.8 6.3002Z" fill="#E43D11"/>
</g>
</svg>
