<svg width="28" height="28" viewBox="0 0 28 28" fill="none" xmlns="http://www.w3.org/2000/svg">
<path d="M19.6 9.09995C21.8278 9.09995 23.9644 9.98495 25.5397 11.5603C27.115 13.1356 28 15.2721 28 17.5V27.3H22.4V17.5C22.4 16.7573 22.105 16.0452 21.5799 15.5201C21.0548 14.995 20.3426 14.7 19.6 14.7C18.8574 14.7 18.1452 14.995 17.6201 15.5201C17.095 16.0452 16.8 16.7573 16.8 17.5V27.3H11.2V17.5C11.2 15.2721 12.085 13.1356 13.6603 11.5603C15.2356 9.98495 17.3722 9.09995 19.6 9.09995Z" fill="#ECE9E2"/>
<path d="M5.6 10.5H0V27.3H5.6V10.5Z" fill="#ECE9E2"/>
<path d="M2.8 6.29995C4.3464 6.29995 5.6 5.04635 5.6 3.49995C5.6 1.95355 4.3464 0.699951 2.8 0.699951C1.2536 0.699951 0 1.95355 0 3.49995C0 5.04635 1.2536 6.29995 2.8 6.29995Z" fill="#ECE9E2"/>
</svg>
