<svg width="28" height="24" viewBox="0 0 28 24" fill="none" xmlns="http://www.w3.org/2000/svg">
<path d="M28 0.594097C26.7812 1.4538 25.4318 2.11133 24.0036 2.54137C23.2371 1.66002 22.2184 1.03534 21.0853 0.751821C19.9522 0.468301 18.7594 0.539619 17.6681 0.956129C16.5768 1.37264 15.6398 2.11424 14.9838 3.08065C14.3278 4.04705 13.9843 5.19162 14 6.35955V7.63228C11.7634 7.69027 9.54708 7.19422 7.54856 6.1883C5.55004 5.18238 3.83131 3.69781 2.54545 1.86682C2.54545 1.86682 -2.54545 13.3214 8.90909 18.4123C6.28794 20.1915 3.16547 21.0836 0 20.9577C11.4545 27.3214 25.4545 20.9577 25.4545 6.32137C25.4534 5.96686 25.4193 5.61322 25.3527 5.26501C26.6517 3.984 27.5683 2.36664 28 0.594097Z" fill="#ECE9E2"/>
</svg>
