<svg width="28" height="24" viewBox="0 0 28 24" fill="none" xmlns="http://www.w3.org/2000/svg">
<path id="Icon" d="M28 0.593853C26.7812 1.45355 25.4318 2.11108 24.0036 2.54113C23.2371 1.65978 22.2184 1.0351 21.0853 0.751577C19.9522 0.468057 18.7594 0.539375 17.6681 0.955884C16.5768 1.37239 15.6398 2.114 14.9838 3.0804C14.3278 4.0468 13.9843 5.19137 14 6.35931V7.63203C11.7634 7.69003 9.54708 7.19398 7.54856 6.18806C5.55004 5.18214 3.83131 3.69757 2.54545 1.86658C2.54545 1.86658 -2.54545 13.3211 8.90909 18.412C6.28794 20.1913 3.16547 21.0834 0 20.9575C11.4545 27.3211 25.4545 20.9575 25.4545 6.32113C25.4534 5.96661 25.4193 5.61297 25.3527 5.26476C26.6517 3.98375 27.5683 2.3664 28 0.593853Z" fill="#E43D11"/>
</svg>
